<?xml version="1.0" encoding="iso-8859-1"?>
<!-- Generator: Adobe Illustrator 19.0.0, SVG Export Plug-In . SVG Version: 6.00 Build 0)  -->
<svg version="1.1" id="Capa_1" xmlns="http://www.w3.org/2000/svg" xmlns:xlink="http://www.w3.org/1999/xlink" x="0px" y="0px"
	 viewBox="0 0 373.029 373.029" style="enable-background:new 0 0 373.029 373.029;" xml:space="preserve">
<g>
	<path style="fill:#4DCFE0;" d="M219.951,26.645H153.6c-8.882,0-15.673,6.792-15.673,15.673v287.869
		c0,8.882,6.792,15.673,15.673,15.673h66.351c8.882,0,15.673-6.792,15.673-15.673V42.318
		C235.624,33.437,228.833,26.645,219.951,26.645z"/>
	<path style="fill:#4DCFE0;" d="M82.024,156.735H15.673C6.792,156.735,0,163.527,0,172.408V330.71
		c0,8.882,6.792,15.673,15.673,15.673h66.351c8.882,0,15.673-6.792,15.673-15.673V172.408
		C97.698,163.527,90.906,156.735,82.024,156.735z"/>
	<path style="fill:#4DCFE0;" d="M357.355,119.641h-66.351c-8.882,0-15.673,6.792-15.673,15.673V330.71
		c0,8.882,6.792,15.673,15.673,15.673h66.351c8.882,0,15.673-6.792,15.673-15.673V135.314
		C373.029,126.433,366.237,119.641,357.355,119.641z"/>
</g>
<g>
</g>
<g>
</g>
<g>
</g>
<g>
</g>
<g>
</g>
<g>
</g>
<g>
</g>
<g>
</g>
<g>
</g>
<g>
</g>
<g>
</g>
<g>
</g>
<g>
</g>
<g>
</g>
<g>
</g>
</svg>
