<svg height="511pt" viewBox="0 -17 511.99997 511" width="511pt" xmlns="http://www.w3.org/2000/svg"><path d="m138.964844 478.15625h-117.039063c-5.773437 0-10.449219-4.679688-10.449219-10.449219v-248.707031h127.484376v259.15625zm0 0" fill="#c9d2e3"/><path d="m138.964844 219v204.816406h-26.125v-56.578125c0-2.769531 1.101562-5.425781 3.058594-7.386719l4.328124-4.328124c1.960938-1.960938 3.0625-4.617188 3.0625-7.390626v-129.132812zm0 0" fill="#adbbd5"/><path d="m21.925781 478.15625h64.789063v-37.621094h-75.238282v27.171875c0 5.769531 4.675782 10.449219 10.449219 10.449219zm0 0" fill="#636363"/><path d="m138.964844 143.765625h-123.230469c-5.378906 0-9.878906 4.082031-10.402344 9.4375l-5.2812498 54.335937c-.5976562 6.144532 4.2304688 11.460938 10.3984378 11.460938h128.515625zm0 0" fill="#ff6969"/><path d="m111.792969 143.765625v35.675781c0 2.769532 1.101562 5.429688 3.0625 7.390625l4.328125 4.328125c1.601562 1.601563 2.621094 3.675782 2.9375 5.898438h-121.050782l-1.0195308 10.480468c-.5976562 6.144532 4.2304688 11.460938 10.3984378 11.460938h128.515625v-75.234375zm0 0" fill="#ea4747"/><path d="m47.003906 330.8125v-45.390625c0-15.375 12.054688-28.367187 27.421875-28.789063 15.945313-.4375 29.007813 12.355469 29.007813 28.203126v45.976562c0 3.464844-2.808594 6.269531-6.269532 6.269531h-43.890624c-3.460938 0-6.269532-2.804687-6.269532-6.269531zm0 0" fill="#ddf5ff"/><path d="m75.355469 256.621094c-2.390625-.011719-4.710938.28125-6.929688.828125 12.300781 3.039062 21.421875 14.144531 21.421875 27.386719v52.246093h7.316406c3.464844 0 6.269532-2.804687 6.269532-6.269531v-45.375c0-15.628906-12.449219-28.742188-28.078125-28.816406zm0 0" fill="#c1e9f4"/><path d="m373.035156 478.15625h117.039063c5.769531 0 10.449219-4.679688 10.449219-10.449219v-248.707031h-127.488282zm0 0" fill="#c9d2e3"/><path d="m479.625 219v259.15625h10.449219c5.773437 0 10.449219-4.679688 10.449219-10.449219v-248.707031zm0 0" fill="#adbbd5"/><path d="m373.035156 219v204.816406h27.171875v-56.578125c0-2.769531-1.101562-5.425781-3.0625-7.386719l-4.328125-4.328124c-1.960937-1.960938-3.058594-4.617188-3.058594-7.390626v-129.132812zm0 0" fill="#adbbd5"/><path d="m490.074219 478.15625h-64.789063v-37.621094h75.238282v27.171875c0 5.769531-4.675782 10.449219-10.449219 10.449219zm0 0" fill="#636363"/><path d="m479.625 478.15625h10.449219c5.773437 0 10.449219-4.679688 10.449219-10.449219v-27.171875h-20.898438zm0 0" fill="#494949"/><path d="m373.035156 143.765625h123.230469c5.378906 0 9.878906 4.082031 10.402344 9.4375l5.28125 54.339844c.597656 6.140625-4.230469 11.460937-10.398438 11.460937h-128.515625zm0 0" fill="#ff6969"/><path d="m496.265625 143.765625h-12.417969l4.066406 41.832031c.597657 6.140625-4.230468 11.460938-10.398437 11.460938h-104.480469v21.945312h128.515625c6.167969 0 10.996094-5.320312 10.398438-11.460937l-5.28125-54.339844c-.523438-5.355469-5.023438-9.4375-10.402344-9.4375zm0 0" fill="#ea4747"/><path d="m404.386719 440.535156h-296.773438v-27.167968c0-5.769532 4.679688-10.449219 10.449219-10.449219h275.875c5.769531 0 10.449219 4.679687 10.449219 10.449219zm0 0" fill="#c9d2e3"/><path d="m391.847656 402.917969v14.628906c0 5.773437-4.679687 10.449219-10.449218 10.449219h-273.785157v12.542968h296.773438v-27.171874c0-5.769532-4.679688-10.449219-10.449219-10.449219zm0 0" fill="#adbbd5"/><path d="m86.714844 440.535156h338.570312v37.621094h-338.570312zm0 0" fill="#c9d2e3"/><path d="m412.746094 440.535156v14.632813c0 5.769531-4.679688 10.449219-10.449219 10.449219h-315.582031v12.539062h338.570312v-37.617188h-12.539062zm0 0" fill="#adbbd5"/><path d="m159.863281 143.765625h193.320313v259.152344h-193.320313zm0 0" fill="#adbbd5"/><path d="m290.484375 402.917969v-95.210938c0-6.949219-3.453125-13.445312-9.214844-17.328125l-13.652343-9.203125c-7.027344-4.742187-16.222657-4.765625-23.277344-.0625l-13.519532 9.011719c-5.8125 3.875-9.304687 10.402344-9.304687 17.390625v95.402344zm0 0" fill="#ffd664"/><path d="m281.269531 290.378906-13.652343-9.203125c-5.835938-3.9375-13.160157-4.609375-19.519532-2.035156 1.332032.539063 2.621094 1.210937 3.84375 2.035156l13.652344 9.203125c5.761719 3.882813 9.214844 10.378906 9.214844 17.328125v95.210938h15.675781v-95.210938c0-6.949219-3.453125-13.445312-9.214844-17.328125zm0 0" fill="#f9c646"/><path d="m180.761719 185.5625 8.613281-8.613281c1.175781-1.175781 1.835938-2.769531 1.835938-4.433594v-28.75h-62.699219v28.75c0 1.664063.660156 3.257813 1.835937 4.433594l8.613282 8.613281zm0 0" fill="#ffd664"/><path d="m174.492188 143.765625v31.347656l-10.449219 10.449219h16.71875l8.613281-8.613281c1.175781-1.175781 1.835938-2.769531 1.835938-4.433594v-28.75zm0 0" fill="#f9c646"/><path d="m138.964844 361.117188-8.613282 8.613281c-1.175781 1.175781-1.835937 2.773437-1.835937 4.433593v28.753907h62.699219v-28.753907c0-1.664062-.664063-3.257812-1.835938-4.433593l-8.613281-8.613281zm0 0" fill="#ffd664"/><path d="m180.761719 361.117188h-16.71875l10.449219 10.453124v31.347657h16.71875v-28.753907c0-1.660156-.660157-3.257812-1.835938-4.429687zm0 0" fill="#f9c646"/><path d="m138.964844 185.5625h41.796875v175.554688h-41.796875zm0 0" fill="#c9d2e3"/><path d="m331.238281 185.5625-8.613281-8.613281c-1.175781-1.175781-1.835938-2.769531-1.835938-4.433594v-28.75h62.699219v28.75c0 1.664063-.660156 3.257813-1.835937 4.433594l-8.613282 8.613281zm0 0" fill="#ffd664"/><path d="m373.035156 361.117188 8.613282 8.613281c1.175781 1.175781 1.835937 2.773437 1.835937 4.433593v28.753907h-62.699219v-28.753907c0-1.664062.664063-3.257812 1.835938-4.433593l8.613281-8.613281zm0 0" fill="#ffd664"/><path d="m366.769531 143.765625v31.347656l-10.453125 10.449219h16.722656l8.613282-8.613281c1.175781-1.175781 1.835937-2.769531 1.835937-4.433594v-28.75zm0 0" fill="#f9c646"/><path d="m373.035156 361.117188h-16.71875l10.449219 10.453124v31.347657h16.722656v-28.753907c0-1.660156-.664062-3.257812-1.835937-4.429687zm0 0" fill="#f9c646"/><path d="m331.238281 185.5625h41.796875v175.554688h-41.796875zm0 0" fill="#c9d2e3"/><path d="m262.429688 2.730469 132.550781 103.414062h-277.960938l132.554688-103.414062c3.777343-2.949219 9.074219-2.949219 12.855469 0zm0 0" fill="#ff6969"/><path d="m249.578125 2.6875-5.402344 4.183594 82.757813 64.886718c7.875 6.097657 3.558594 18.710938-6.398438 18.710938h-183.277344l-20.238281 15.675781h277.964844l-132.578125-103.433593c-3.769531-2.9375-9.050781-2.949219-12.828125-.023438zm0 0" fill="#ea4747"/><path d="m404.386719 143.765625h-296.773438c-5.769531 0-10.449219-4.679687-10.449219-10.453125v-16.71875c0-5.769531 4.679688-10.449219 10.449219-10.449219h296.773438c5.769531 0 10.449219 4.679688 10.449219 10.449219v16.71875c0 5.773438-4.679688 10.453125-10.449219 10.453125zm0 0" fill="#c9d2e3"/><path d="m402.296875 106.144531v14.628907c0 5.769531-4.679687 10.449218-10.449219 10.449218h-294.683594v2.089844c0 5.773438 4.679688 10.453125 10.449219 10.453125h296.773438c5.769531 0 10.449219-4.679687 10.449219-10.453125v-16.71875c0-5.769531-4.679688-10.449219-10.449219-10.449219zm0 0" fill="#adbbd5"/><path d="m464.996094 330.8125v-45.390625c0-15.375-12.054688-28.367187-27.421875-28.789063-15.945313-.4375-29.007813 12.355469-29.007813 28.203126v45.976562c0 3.464844 2.808594 6.269531 6.269532 6.269531h43.890624c3.460938 0 6.269532-2.804687 6.269532-6.269531zm0 0" fill="#ddf5ff"/><path d="m436.917969 256.621094c-2.390625-.011719-4.710938.28125-6.929688.828125 12.300781 3.039062 21.421875 14.144531 21.421875 27.386719v52.246093h7.316406c3.460938 0 6.269532-2.804687 6.269532-6.269531v-45.375c0-15.628906-12.449219-28.742188-28.078125-28.816406zm0 0" fill="#c1e9f4"/><path d="m286.824219 207.507812c0 16.734376-13.566407 30.304688-30.300781 30.304688-16.738282 0-30.304688-13.570312-30.304688-30.304688 0-16.738281 13.566406-30.304687 30.304688-30.304687 16.734374 0 30.300781 13.566406 30.300781 30.304687zm0 0" fill="#ddf5ff"/><path d="m272.246094 181.597656c2.785156 4.582032 4.390625 9.964844 4.390625 15.722656 0 16.734376-13.566407 30.300782-30.304688 30.300782-5.753906 0-11.136719-1.601563-15.722656-4.390625 5.316406 8.742187 14.933594 14.582031 25.914063 14.582031 16.734374 0 30.300781-13.570312 30.300781-30.304688.003906-10.980468-5.835938-20.597656-14.578125-25.910156zm0 0" fill="#c1e9f4"/></svg>