<?xml version="1.0" encoding="iso-8859-1"?>
<!-- Generator: Adobe Illustrator 19.0.0, SVG Export Plug-In . SVG Version: 6.00 Build 0)  -->
<svg version="1.1" id="Capa_1" xmlns="http://www.w3.org/2000/svg" xmlns:xlink="http://www.w3.org/1999/xlink" x="0px" y="0px"
	 viewBox="0 0 384 384" style="enable-background:new 0 0 384 384;" xml:space="preserve">
<path style="fill:#FF7043;" d="M368,96v240c0,17.68-14.32,32-32,32s-32-14.32-32-32V96H368z"/>
<path style="fill:#4DD0E1;" d="M336,368H48c-17.68,0-32-14.32-32-32V48c0-17.68,14.32-32,32-32h256v80v240
	C304,353.68,318.32,368,336,368z"/>
<g>
	<path style="fill:#012E52;" d="M368,80h-48V16c0-8.832-7.168-16-16-16H48C21.528,0,0,21.528,0,48v288c0,26.472,21.528,48,48,48h288
		c26.472,0,48-21.528,48-48V96C384,87.168,376.832,80,368,80z M32,336V48c0-8.824,7.176-16,16-16h240v64v240
		c0,5.616,1.024,10.984,2.8,16H48C39.176,352,32,344.824,32,336z M352,336c0,8.824-7.176,16-16,16s-16-7.176-16-16V112h32V336z"/>
	<path style="fill:#012E52;" d="M240,80H80c-8.832,0-16,7.168-16,16s7.168,16,16,16h160c8.832,0,16-7.168,16-16S248.832,80,240,80z"
		/>
	<path style="fill:#012E52;" d="M208,176H80c-8.832,0-16,7.168-16,16s7.168,16,16,16h128c8.832,0,16-7.168,16-16
		S216.832,176,208,176z"/>
	<path style="fill:#012E52;" d="M192,224H80c-8.832,0-16,7.168-16,16s7.168,16,16,16h112c8.832,0,16-7.168,16-16
		S200.832,224,192,224z"/>
	<path style="fill:#012E52;" d="M176,272H80c-8.832,0-16,7.168-16,16s7.168,16,16,16h96c8.832,0,16-7.168,16-16S184.832,272,176,272
		z"/>
</g>
<g>
</g>
<g>
</g>
<g>
</g>
<g>
</g>
<g>
</g>
<g>
</g>
<g>
</g>
<g>
</g>
<g>
</g>
<g>
</g>
<g>
</g>
<g>
</g>
<g>
</g>
<g>
</g>
<g>
</g>
</svg>
