<?xml version="1.0" encoding="utf-8"?>
<!-- Generator: Adobe Illustrator 18.0.0, SVG Export Plug-In . SVG Version: 6.00 Build 0)  -->
<!DOCTYPE svg PUBLIC "-//W3C//DTD SVG 1.1//EN" "http://www.w3.org/Graphics/SVG/1.1/DTD/svg11.dtd">
<svg xmlns="http://www.w3.org/2000/svg" xmlns:xlink="http://www.w3.org/1999/xlink" version="1.1" id="Layer_2" x="0px" y="0px" viewBox="0 0 64 64" style="enable-background:new 0 0 64 64;" xml:space="preserve" width="512" height="512">
<style type="text/css">
	.st0{fill:#EDEFF1;}
	.st1{fill:#D3D3D3;}
	.st2{fill:#98CA69;}
	.st3{fill:#80D6FB;}
	.st4{fill:#FFB0AA;}
	.st5{fill:#FFE352;}
	.st6{fill:#6E83B7;}
	.st7{fill:#466089;}
	.st8{fill:#FFD3B3;}
	.st9{fill:#FCB98B;}
	.st10{fill:#FFB236;}
	.st11{fill:#46BEE8;}
	.st12{fill:#E0E2FF;}
	.st13{fill:#8FA5D1;}
	.st14{fill:#75AA40;}
</style>
<g>
	<g>
		<g>
			<path class="st0" d="M42.676,38.966L32,36h-6h-6L9.324,38.966C4.995,40.168,2,44.109,2,48.601V62h24h24V48.601     C50,44.109,47.005,40.168,42.676,38.966z"/>
		</g>
	</g>
	<g>
		<polygon class="st1" points="37.016,37.393 32,36 20,36 14.984,37.393 21.932,47.686 26,42.6 30.068,47.686   "/>
	</g>
	<g>
		<rect x="10" y="56" class="st1" width="2" height="6"/>
	</g>
	<g>
		<rect x="40" y="56" class="st1" width="2" height="6"/>
	</g>
	<g>
		<polygon class="st9" points="32,29 32,36 26,41 20,36 20,29   "/>
	</g>
	<g>
		<path class="st8" d="M37,15v6c0,6.075-4.925,11-11,11h0h0c-6.075,0-11-4.925-11-11v-6c0-2.209,1.791-4,4-4h14    C35.209,11,37,12.791,37,15z"/>
	</g>
	<path class="st6" d="M33,5h-0.141C32.413,3.278,30.862,2,29,2h-4c-5.523,0-10,4.477-10,10v9l2-6h12c1.862,0,3.412-1.278,3.859-3   h0.537c0.937,0,1.749,0.651,1.952,1.566L37,21V9C37,6.791,35.209,5,33,5z"/>
	<g>
		<path class="st8" d="M37,15h0.639c1.236,0,2.176,1.11,1.973,2.329l-0.333,2C39.118,20.293,38.283,21,37.306,21H37V15z"/>
	</g>
	<g>
		<path class="st8" d="M15,15h-0.639c-1.236,0-2.176,1.11-1.973,2.329l0.333,2C12.882,20.293,13.717,21,14.694,21H15V15z"/>
	</g>
	<g>
		<polygon class="st0" points="20,34 16,37.111 22,46 26,41   "/>
	</g>
	<g>
		<polygon class="st0" points="32,34 36,37.111 30,46 26,41   "/>
	</g>
	<polygon class="st4" points="30,46 26,41 22,46 24,49 22,62 26,62 30,62 28,49  "/>
	<g>
		<path class="st3" d="M51,13c-6.075,0-11,4.925-11,11c0,2.047,0.569,3.957,1.543,5.598L40,35l5.402-1.543    C47.043,34.431,48.953,35,51,35c6.075,0,11-4.925,11-11S57.075,13,51,13z"/>
	</g>
	<g>
		<g>
			<polygon class="st6" points="58,23 52,26 48,24 44,26 44,31 58,31    "/>
		</g>
	</g>
	<g>
		<circle class="st5" cx="52" cy="20" r="4"/>
	</g>
	<path class="st6" d="M52.53,19.5H51.47c-0.31,0-0.562-0.251-0.562-0.561s0.252-0.562,0.562-0.562h1.061   c0.31,0,0.562,0.252,0.562,0.562h1c0-0.861-0.7-1.562-1.562-1.562H52.5v-0.561h-1v0.561h-0.03c-0.861,0-1.562,0.701-1.562,1.562   s0.7,1.561,1.562,1.561h1.061c0.31,0,0.562,0.251,0.562,0.561s-0.252,0.562-0.562,0.562H51.47c-0.31,0-0.562-0.252-0.562-0.562h-1   c0,0.861,0.7,1.562,1.562,1.562h0.03v0.561h1v-0.561h0.03c0.861,0,1.562-0.701,1.562-1.562S53.392,19.5,52.53,19.5z"/>
</g>
</svg>
