<?xml version="1.0" encoding="iso-8859-1"?>
<!-- Generator: Adobe Illustrator 19.0.0, SVG Export Plug-In . SVG Version: 6.00 Build 0)  -->
<svg version="1.1" id="Capa_1" xmlns="http://www.w3.org/2000/svg" xmlns:xlink="http://www.w3.org/1999/xlink" x="0px" y="0px"
	 viewBox="0 0 405.427 405.427" style="enable-background:new 0 0 405.427 405.427;" xml:space="preserve">
<g>
	<g>
		<path style="fill:#083863;" d="M354.224,196.441h-20.898v-47.543c0-70.692-57.308-128-128-128c-70.692,0-128,57.308-128,128
			v47.543H56.428v-47.543C56.428,66.664,123.092,0,205.326,0s148.898,66.664,148.898,148.898V196.441z"/>
		<path style="fill:#00ACEA;" d="M361.016,300.408c-4.716-3.326-11.235-2.2-14.561,2.516c-0.023,0.032-0.045,0.064-0.067,0.096
			l-13.584,18.286c-16.85,22.546-44.026,34.952-72.098,32.914c-1.577-7.153-5.209-13.69-10.449-18.808
			c-7.577-8.077-18.183-12.622-29.257-12.539c-22.795,0-41.273,18.479-41.273,41.273l0,0c0.286,22.879,18.915,41.275,41.796,41.273
			c18.662,0.334,35.103-12.213,39.706-30.302h5.224c32.652,0.124,63.445-15.176,83.069-41.273l13.584-18.808
			C366.568,310.42,365.632,303.871,361.016,300.408L361.016,300.408z"/>
	</g>
	<g>
		<path style="fill:#00EFD1;" d="M355.269,185.992c17.241,0,31.347,19.331,31.347,36.571v65.306
			c0,17.763-14.106,26.122-31.347,26.122h-33.437v-128H355.269L355.269,185.992z"/>
		<path style="fill:#00EFD1;" d="M88.82,185.992v128H50.158c-17.312,0-31.347-14.035-31.347-31.347v-65.306
			c0-17.312,14.034-31.347,31.347-31.347C50.158,185.992,88.82,185.992,88.82,185.992z"/>
	</g>
</g>
<g>
</g>
<g>
</g>
<g>
</g>
<g>
</g>
<g>
</g>
<g>
</g>
<g>
</g>
<g>
</g>
<g>
</g>
<g>
</g>
<g>
</g>
<g>
</g>
<g>
</g>
<g>
</g>
<g>
</g>
</svg>
